<svg width="184" height="164" viewBox="0 0 184 164" fill="none" xmlns="http://www.w3.org/2000/svg">
<path d="M99.871 0.412954C118.041 0.512838 138.185 -2.93247 152.451 8.48047C166.812 19.9703 167.67 40.8947 172.746 58.7163C178.042 77.3092 187.542 95.7572 182.635 114.459C177.447 134.229 164.413 153.307 145.832 161.277C128.01 168.923 108.535 158.463 89.6091 154.366C73.7939 150.942 58.6435 147.592 44.6506 139.372C27.9217 129.544 6.77635 121.295 1.30793 102.49C-4.18026 83.6177 8.80958 64.8003 17.9115 47.4236C26.0875 31.8145 35.6719 16.6236 50.8427 7.92192C65.5898 -0.536723 82.9285 0.319821 99.871 0.412954Z" fill="#FFA07D"/>
</svg>
